<?xml version="1.0" encoding="utf-8"?>
<!-- Generator: Adobe Illustrator 22.1.0, SVG Export Plug-In . SVG Version: 6.00 Build 0)  -->
<svg version="1.1" id="图层_1" xmlns="http://www.w3.org/2000/svg" xmlns:xlink="http://www.w3.org/1999/xlink" x="0px" y="0px"
	 viewBox="0 0 1178.3 142.4" style="enable-background:new 0 0 1178.3 142.4;" xml:space="preserve">
<style type="text/css">
	.st0{opacity:0;fill:#0A0A0C;}
	.st1{opacity:0.5;}
	.st2{fill:#FFFFFF;enable-background:new    ;}
</style>
<rect class="st0" width="1178.3" height="142.4"/>
<title>资源 1</title>
<g id="图层_1-2" class="st1">
	<path class="st2" d="M99.8,58H48.6l13.6-27.2l9.4,19.1h23.5L74.9,9.2C72.5,4.4,67.7,0,62.2,0h-0.1c-5.4,0-10.3,4.4-12.7,9.2
		L14.8,78.8h71.7l12.1,25.1h-73L33.2,87H9.9l-8,17.9c-2,4.3-2.8,10-0.3,14s8.2,5.6,13.1,5.6h95c4.9,0,10.4-1.8,13-5.9
		s1.8-9.6-0.2-13.9L99.8,58z"/>
	<path class="st2" d="M241.3,63.9h-57.9c-3.1-0.1-5.6-2.5-5.7-5.5c0-3.1,2.1-5.5,4.9-5.5h75.1V47c0-5.7-4.7-10.4-10.4-10.4h-64.7
		c-11.7,0-21.2,9.8-21.2,21.8c0,11.8,10.1,21.8,22,21.8h57.9c3.1,0.1,5.6,2.5,5.7,5.5c0,3.1-2.1,5.5-4.9,5.5H167v5.9
		c0,5.7,4.7,10.4,10.4,10.4h64.7c11.9,0,21.2-9.6,21.2-21.8C263.3,73.9,253.2,63.9,241.3,63.9z M365.7,36.6v26.9h-63.2
		c-1.3,0-2.6,0.1-3.9,0.3V36.6h-5.9c-5.7,0-10.4,4.7-10.4,10.4v60.6h16.3V80.8c0-0.3,1.5-1,3.9-1h63.2v27.7h5.9
		c5.7,0,10.4-4.6,10.4-10.3V36.6H365.7z M604,85.4l-69.5-48.5l-0.4-0.3H531c-5.7,0-10.4,4.7-10.4,10.4v60.6h16.3V58.3l70.1,48.9
		l0.4,0.3h2.5c5.7,0,10.4-4.7,10.4-10.4V36.6H604V85.4z M725,85.4l-69.5-48.5l-0.4-0.3H652c-5.7,0-10.4,4.7-10.4,10.4v60.6H658V58.3
		l70.1,48.9l0.4,0.3h2.5c5.7,0,10.4-4.7,10.4-10.4V36.6h-16.3L725,85.4z M967.1,85.4l-69.5-48.5l-0.4-0.3h-3.1
		c-5.7,0-10.4,4.7-10.4,10.4v60.6H900V58.3l70.1,48.9l0.4,0.3h2.5c5.7,0,10.4-4.7,10.4-10.4V36.6h-16.3L967.1,85.4z M1002.8,107.6
		h11.7V94.9h-11.7V107.6z M862.4,63v18.2c0,14.6-11.8,26.4-26.4,26.4h-47c-14.6,0-26.4-11.8-26.4-26.4V63
		c0-14.6,11.8-26.3,26.4-26.4h47C850.6,36.6,862.4,48.4,862.4,63z M846.1,63c0-5.5-4.5-10-10.1-10h-47c-5.5,0-10,4.5-10,10v18.2
		c0,5.6,4.5,10.1,10.1,10.1h47c5.5,0,10-4.5,10-10.1V63z M480.3,72c-1.9-2.2-5.5-2.6-7.5-2.8h-32l8.8-12.7l4.4,6.3h20l-14.9-21.4
		c-3.6-5.2-10.7-6.4-15.9-2.9c-1.1,0.8-2.1,1.7-2.9,2.9l-43,61.8l-0.5,0.6v2.4l1.6,1.2h15.7l15.3-22h40.3l15.3,22h17.3v-3.6
		L480.3,72L480.3,72z"/>
	<path class="st2" d="M1172.4,36.6c-5.7,0-10.4,4.6-10.4,10.4l0,0v60.6h5.9c5.7,0,10.4-4.7,10.4-10.4V36.6H1172.4z"/>
	<path class="st2" d="M1117.4,72c-1.9-2.3-5.5-2.6-7.4-2.8h-32l8.8-12.7l4.4,6.3h19.9l-14.9-21.4c-3.6-5.2-10.7-6.4-15.9-2.9
		c-1.1,0.8-2.1,1.7-2.9,2.9l-43,61.8l-0.4,0.6v2.4l1.7,1.2h15.7l15.3-22h40.4l15.3,22h17.3v-3.6l-22-31.7L1117.4,72z"/>
</g>
</svg>
